<?xml version="1.0" encoding="UTF-8" standalone="no"?>
<!-- Created with Inkscape (http://www.inkscape.org/) -->

<svg
   xmlns:dc="http://purl.org/dc/elements/1.1/"
   xmlns:cc="http://creativecommons.org/ns#"
   xmlns:rdf="http://www.w3.org/1999/02/22-rdf-syntax-ns#"
   xmlns:svg="http://www.w3.org/2000/svg"
   xmlns="http://www.w3.org/2000/svg"
   xmlns:sodipodi="http://sodipodi.sourceforge.net/DTD/sodipodi-0.dtd"
   xmlns:inkscape="http://www.inkscape.org/namespaces/inkscape"
   width="26.770136mm"
   height="3.0056641mm"
   viewBox="0 0 26.770136 3.0056641"
   version="1.1"
   id="svg8"
   inkscape:version="0.92.3 (2405546, 2018-03-11)"
   sodipodi:docname="logo.svg"
   inkscape:export-filename="/home/simon/Lien vers Files/Programming/Bash/git-checkout-interactive/public/logo.png"
   inkscape:export-xdpi="569.29108"
   inkscape:export-ydpi="569.29108">
  <defs
     id="defs2" />
  <sodipodi:namedview
     id="base"
     pagecolor="#ffffff"
     bordercolor="#666666"
     borderopacity="1.0"
     inkscape:pageopacity="0.0"
     inkscape:pageshadow="2"
     inkscape:zoom="11.313709"
     inkscape:cx="49.135768"
     inkscape:cy="-8.3916172"
     inkscape:document-units="mm"
     inkscape:current-layer="layer1"
     showgrid="false"
     fit-margin-top="0"
     fit-margin-left="0"
     fit-margin-right="0"
     fit-margin-bottom="0"
     inkscape:snap-nodes="false"
     inkscape:window-width="1920"
     inkscape:window-height="1056"
     inkscape:window-x="0"
     inkscape:window-y="0"
     inkscape:window-maximized="0" />
  <metadata
     id="metadata5">
    <rdf:RDF>
      <cc:Work
         rdf:about="">
        <dc:format>image/svg+xml</dc:format>
        <dc:type
           rdf:resource="http://purl.org/dc/dcmitype/StillImage" />
        <dc:title></dc:title>
      </cc:Work>
    </rdf:RDF>
  </metadata>
  <g
     inkscape:label="Calque 1"
     inkscape:groupmode="layer"
     id="layer1"
     transform="translate(-16.348326,-41.160516)">
    <path
       inkscape:connector-curvature="0"
       id="path4538"
       style="font-style:normal;font-variant:normal;font-weight:bold;font-stretch:normal;font-size:medium;line-height:1.25;font-family:'Ubuntu Mono';-inkscape-font-specification:'Ubuntu Mono, Bold';font-variant-ligatures:normal;font-variant-caps:normal;font-variant-numeric:normal;font-feature-settings:normal;text-align:start;letter-spacing:0px;word-spacing:0px;writing-mode:lr-tb;text-anchor:start;fill:#f78626;fill-opacity:1;stroke:none;stroke-width:0.28091294"
       d="m 17.917693,42.822101 -1.438275,0.606772 -0.131092,-0.404515 1.052487,-0.408259 -1.052487,-0.408259 0.131092,-0.404515 1.438275,0.603025 z" />
    <g
       id="g4656">
      <path
         d="m 19.361704,42.691569 q 0,0.204611 0.07408,0.313972 0.07408,0.105833 0.232833,0.105833 0.07056,0 0.130528,-0.01764 0.0635,-0.01764 0.112889,-0.04586 v -0.797278 q -0.04939,-0.01058 -0.08819,-0.01411 -0.0388,-0.0035 -0.08114,-0.0035 -0.381,0 -0.381,0.458611 z m 0.987778,0.680861 q 0,0.405694 -0.197555,0.599722 -0.194028,0.194028 -0.627945,0.194028 -0.155222,0 -0.299861,-0.03175 -0.141111,-0.03175 -0.271639,-0.07408 l 0.08114,-0.366889 q 0.102306,0.03881 0.215195,0.07056 0.112888,0.03528 0.282222,0.03528 0.112889,0 0.186972,-0.02822 0.07408,-0.02469 0.116417,-0.07056 0.04233,-0.04586 0.05997,-0.109361 0.01764,-0.05997 0.01764,-0.130528 v -0.06703 q -0.09172,0.03528 -0.169334,0.05292 -0.07408,0.01764 -0.162277,0.01764 -0.324556,0 -0.493889,-0.204611 -0.165806,-0.204611 -0.165806,-0.567972 0,-0.409223 0.225778,-0.610306 0.225778,-0.201083 0.613833,-0.201083 0.271639,0 0.589139,0.08819 z"
         style="font-style:normal;font-variant:normal;font-weight:bold;font-stretch:normal;font-size:3.52777767px;line-height:1.25;font-family:'Ubuntu Mono';-inkscape-font-specification:'Ubuntu Mono, Bold';font-variant-ligatures:normal;font-variant-caps:normal;font-variant-numeric:normal;font-feature-settings:normal;text-align:start;letter-spacing:0px;word-spacing:0px;writing-mode:lr-tb;text-anchor:start;fill:#000000;fill-opacity:1;stroke:none;stroke-width:0.26458332"
         id="path4541"
         inkscape:connector-curvature="0" />
      <path
         inkscape:connector-curvature="0"
         id="path4615"
         d="m 21.570093,41.439208 q 0,0.127 -0.08114,0.201083 -0.08114,0.07408 -0.194027,0.07408 -0.112889,0 -0.194028,-0.07408 -0.07761,-0.07408 -0.07761,-0.201083 0,-0.130528 0.07761,-0.204612 0.08114,-0.07408 0.194028,-0.07408 0.112888,0 0.194027,0.07408 0.08114,0.07408 0.08114,0.204612 z"
         style="font-style:normal;font-variant:normal;font-weight:bold;font-stretch:normal;font-size:3.52777767px;line-height:1.25;font-family:'Ubuntu Mono';-inkscape-font-specification:'Ubuntu Mono, Bold';font-variant-ligatures:normal;font-variant-caps:normal;font-variant-numeric:normal;font-feature-settings:normal;text-align:start;letter-spacing:0px;word-spacing:0px;writing-mode:lr-tb;text-anchor:start;opacity:1;vector-effect:none;fill:#f78626;fill-opacity:1;stroke:none;stroke-width:0.28091294;stroke-linecap:butt;stroke-linejoin:miter;stroke-miterlimit:4;stroke-dasharray:none;stroke-dashoffset:0;stroke-opacity:1" />
      <path
         inkscape:connector-curvature="0"
         id="path4543"
         d="m 22.215677,43.502957 q -0.134056,0.0635 -0.254,0.08467 -0.116417,0.0247 -0.215195,0.0247 -0.169333,0 -0.28575,-0.04939 -0.112889,-0.04939 -0.183444,-0.141111 -0.06703,-0.09525 -0.09525,-0.229306 -0.02822,-0.134056 -0.02822,-0.306917 v -0.610305 h -0.458611 v -0.359833 h 0.892528 v 1.026583 q 0,0.148166 0.05292,0.22225 0.05644,0.07055 0.183444,0.07055 0.05997,0 0.144639,-0.01411 0.08467,-0.01764 0.1905,-0.06703 z"
         style="font-style:normal;font-variant:normal;font-weight:bold;font-stretch:normal;font-size:3.52777767px;line-height:1.25;font-family:'Ubuntu Mono';-inkscape-font-specification:'Ubuntu Mono, Bold';font-variant-ligatures:normal;font-variant-caps:normal;font-variant-numeric:normal;font-feature-settings:normal;text-align:start;letter-spacing:0px;word-spacing:0px;writing-mode:lr-tb;text-anchor:start;fill:#000000;fill-opacity:1;stroke:none;stroke-width:0.26458332" />
      <path
         d="m 22.602704,42.275291 h -0.377472 v -0.359833 h 0.377472 V 41.49918 l 0.433917,-0.07056 v 0.486834 h 0.694972 v 0.359833 h -0.694972 v 0.670278 q 0,0.09172 0.01764,0.148166 0.01764,0.05644 0.04939,0.08819 0.03175,0.03175 0.07761,0.04233 0.04586,0.01058 0.102306,0.01058 0.05997,0 0.109361,-0.0035 0.05292,-0.0035 0.09878,-0.01058 0.04939,-0.01058 0.09878,-0.02822 0.05292,-0.01764 0.112889,-0.04586 l 0.05997,0.373944 q -0.119944,0.04939 -0.261055,0.07056 -0.137584,0.02117 -0.268111,0.02117 -0.151695,0 -0.268111,-0.0247 -0.116417,-0.02469 -0.197556,-0.09525 -0.08114,-0.07055 -0.123472,-0.197555 -0.04233,-0.130528 -0.04233,-0.338667 z"
         style="font-style:normal;font-variant:normal;font-weight:bold;font-stretch:normal;font-size:3.52777767px;line-height:1.25;font-family:'Ubuntu Mono';-inkscape-font-specification:'Ubuntu Mono, Bold';font-variant-ligatures:normal;font-variant-caps:normal;font-variant-numeric:normal;font-feature-settings:normal;text-align:start;letter-spacing:0px;word-spacing:0px;writing-mode:lr-tb;text-anchor:start;fill:#000000;fill-opacity:1;stroke:none;stroke-width:0.26458332"
         id="path4545"
         inkscape:connector-curvature="0" />
    </g>
    <g
       id="g4650">
      <path
         inkscape:connector-curvature="0"
         id="path4588"
         d="m 26.155221,41.633632 q -0.09172,0 -0.15875,-0.0635 -0.06703,-0.0635 -0.06703,-0.172861 0,-0.109361 0.06703,-0.172861 0.06703,-0.0635 0.15875,-0.0635 0.09525,0 0.15875,0.0635 0.06703,0.0635 0.06703,0.172861 0,0.109361 -0.06703,0.172861 -0.0635,0.0635 -0.15875,0.0635 z"
         style="font-style:normal;font-variant:normal;font-weight:normal;font-stretch:normal;font-size:3.52777767px;line-height:1.25;font-family:'Ubuntu Mono';-inkscape-font-specification:'Ubuntu Mono, Normal';font-variant-ligatures:normal;font-variant-caps:normal;font-variant-numeric:normal;font-feature-settings:normal;text-align:start;letter-spacing:0px;word-spacing:0px;writing-mode:lr-tb;text-anchor:start;opacity:1;vector-effect:none;fill:#f78626;fill-opacity:1;stroke:none;stroke-width:0.28091294;stroke-linecap:butt;stroke-linejoin:miter;stroke-miterlimit:4;stroke-dasharray:none;stroke-dashoffset:0;stroke-opacity:1" />
      <path
         inkscape:connector-curvature="0"
         id="path4548"
         d="m 26.081141,42.131049 h -0.472723 v -0.243417 h 0.762 v 1.005417 q 0,0.243416 0.06703,0.328083 0.06703,0.08114 0.201083,0.08114 0.102306,0 0.186973,-0.02469 0.08819,-0.02469 0.137583,-0.05292 l 0.04233,0.246944 q -0.02117,0.01058 -0.05997,0.02822 -0.0388,0.01411 -0.09172,0.02822 -0.04939,0.01411 -0.112889,0.02469 -0.05997,0.01058 -0.127,0.01058 -0.155222,0 -0.257528,-0.04233 -0.102305,-0.04233 -0.165805,-0.127 -0.05997,-0.08467 -0.08467,-0.208139 -0.02469,-0.127 -0.02469,-0.292805 z"
         style="font-style:normal;font-variant:normal;font-weight:normal;font-stretch:normal;font-size:3.52777767px;line-height:1.25;font-family:'Ubuntu Mono';-inkscape-font-specification:'Ubuntu Mono, Normal';font-variant-ligatures:normal;font-variant-caps:normal;font-variant-numeric:normal;font-feature-settings:normal;text-align:start;letter-spacing:0px;word-spacing:0px;writing-mode:lr-tb;text-anchor:start;fill:#000000;fill-opacity:1;stroke:none;stroke-width:0.26458332" />
      <path
         d="m 27.362118,41.933493 q 0.15875,-0.0388 0.313973,-0.05997 0.15875,-0.02117 0.296333,-0.02117 0.328083,0 0.493889,0.169334 0.169333,0.169333 0.169333,0.543277 v 0.959556 h -0.289278 v -0.906639 q 0,-0.15875 -0.02822,-0.257528 -0.02822,-0.09878 -0.08114,-0.151694 -0.04939,-0.05645 -0.123472,-0.07761 -0.07056,-0.02117 -0.155222,-0.02117 -0.07056,0 -0.151695,0.01058 -0.07761,0.0071 -0.151694,0.02117 v 1.382889 h -0.292806 z"
         style="font-style:normal;font-variant:normal;font-weight:normal;font-stretch:normal;font-size:3.52777767px;line-height:1.25;font-family:'Ubuntu Mono';-inkscape-font-specification:'Ubuntu Mono, Normal';font-variant-ligatures:normal;font-variant-caps:normal;font-variant-numeric:normal;font-feature-settings:normal;text-align:start;letter-spacing:0px;word-spacing:0px;writing-mode:lr-tb;text-anchor:start;fill:#000000;fill-opacity:1;stroke:none;stroke-width:0.26458332"
         id="path4550"
         inkscape:connector-curvature="0" />
      <path
         d="m 29.569082,41.887632 h 0.691444 v 0.243417 h -0.691444 v 0.762 q 0,0.123472 0.01764,0.201083 0.01764,0.07761 0.05644,0.127 0.04233,0.04586 0.105834,0.0635 0.0635,0.01764 0.155222,0.01764 0.127,0 0.204611,-0.02117 0.07761,-0.02117 0.148167,-0.05644 l 0.04233,0.246944 q -0.04939,0.02117 -0.15875,0.05645 -0.105833,0.03528 -0.264583,0.03528 -0.183445,0 -0.299861,-0.04233 -0.116417,-0.04233 -0.183445,-0.127 -0.0635,-0.08467 -0.08819,-0.208139 -0.0247,-0.127 -0.0247,-0.292805 v -0.762 h -0.345722 v -0.243417 h 0.345722 v -0.458611 l 0.289278,-0.04939 z"
         style="font-style:normal;font-variant:normal;font-weight:normal;font-stretch:normal;font-size:3.52777767px;line-height:1.25;font-family:'Ubuntu Mono';-inkscape-font-specification:'Ubuntu Mono, Normal';font-variant-ligatures:normal;font-variant-caps:normal;font-variant-numeric:normal;font-feature-settings:normal;text-align:start;letter-spacing:0px;word-spacing:0px;writing-mode:lr-tb;text-anchor:start;fill:#000000;fill-opacity:1;stroke:none;stroke-width:0.26458332"
         id="path4552"
         inkscape:connector-curvature="0" />
      <path
         d="m 31.272485,41.848826 q 0.331611,0 0.511528,0.208139 0.179917,0.204611 0.179917,0.624417 v 0.102306 h -1.171222 q 0.01764,0.254 0.165805,0.388055 0.151694,0.130528 0.423333,0.130528 0.155223,0 0.264584,-0.02469 0.109361,-0.02469 0.165805,-0.05292 l 0.03881,0.246944 q -0.05292,0.02822 -0.1905,0.05997 -0.137584,0.03175 -0.310445,0.03175 -0.211666,0 -0.373944,-0.0635 -0.15875,-0.06703 -0.264583,-0.179916 -0.105834,-0.112889 -0.15875,-0.268111 -0.05292,-0.15875 -0.05292,-0.342195 0,-0.218722 0.06703,-0.381 0.06703,-0.162278 0.176389,-0.268111 0.109361,-0.105833 0.246944,-0.15875 0.137583,-0.05292 0.282222,-0.05292 z m 0.395111,0.6985 q 0,-0.208138 -0.109361,-0.328083 -0.109361,-0.123472 -0.289278,-0.123472 -0.102305,0 -0.186972,0.03881 -0.08114,0.03881 -0.141111,0.102306 -0.05997,0.0635 -0.09525,0.144639 -0.03528,0.08114 -0.04586,0.165805 z"
         style="font-style:normal;font-variant:normal;font-weight:normal;font-stretch:normal;font-size:3.52777767px;line-height:1.25;font-family:'Ubuntu Mono';-inkscape-font-specification:'Ubuntu Mono, Normal';font-variant-ligatures:normal;font-variant-caps:normal;font-variant-numeric:normal;font-feature-settings:normal;text-align:start;letter-spacing:0px;word-spacing:0px;writing-mode:lr-tb;text-anchor:start;fill:#000000;fill-opacity:1;stroke:none;stroke-width:0.26458332"
         id="path4554"
         inkscape:connector-curvature="0" />
      <path
         d="m 32.383221,43.524521 v -1.548695 q 0.359833,-0.123472 0.726722,-0.123472 0.112889,0 0.215195,0.01058 0.102305,0.0071 0.225777,0.03528 l -0.05292,0.257528 q -0.112889,-0.03175 -0.201084,-0.03881 -0.08467,-0.01058 -0.186972,-0.01058 -0.215194,0 -0.437444,0.05997 v 1.358195 z"
         style="font-style:normal;font-variant:normal;font-weight:normal;font-stretch:normal;font-size:3.52777767px;line-height:1.25;font-family:'Ubuntu Mono';-inkscape-font-specification:'Ubuntu Mono, Normal';font-variant-ligatures:normal;font-variant-caps:normal;font-variant-numeric:normal;font-feature-settings:normal;text-align:start;letter-spacing:0px;word-spacing:0px;writing-mode:lr-tb;text-anchor:start;fill:#000000;fill-opacity:1;stroke:none;stroke-width:0.26458332"
         id="path4556"
         inkscape:connector-curvature="0" />
      <path
         d="m 34.388588,43.316382 q 0.109361,0 0.194028,-0.0071 0.08819,-0.0071 0.144639,-0.01764 v -0.486834 q -0.05644,-0.01764 -0.137583,-0.02822 -0.07761,-0.01058 -0.165806,-0.01058 -0.08114,0 -0.15875,0.01411 -0.07761,0.01058 -0.137583,0.04233 -0.05997,0.03175 -0.09878,0.08467 -0.03881,0.04939 -0.03881,0.127 0,0.15875 0.105834,0.22225 0.109361,0.05997 0.292805,0.05997 z m -0.02822,-1.467556 q 0.183445,0 0.306917,0.04586 0.127,0.04586 0.204611,0.127 0.07761,0.08114 0.109361,0.197555 0.03175,0.116417 0.03175,0.254 v 1.023056 q -0.102306,0.01764 -0.271639,0.04233 -0.165805,0.02469 -0.342194,0.02469 -0.134056,0 -0.261056,-0.02469 -0.127,-0.02117 -0.225778,-0.07761 -0.09878,-0.05997 -0.15875,-0.162278 -0.05997,-0.102305 -0.05997,-0.261055 0,-0.141112 0.05997,-0.236362 0.0635,-0.09878 0.15875,-0.15875 0.09878,-0.05997 0.22225,-0.08467 0.127,-0.02822 0.254,-0.02822 0.172861,0 0.338667,0.0388 v -0.08114 q 0,-0.07408 -0.01764,-0.141111 -0.01411,-0.07055 -0.05997,-0.127 -0.04233,-0.05644 -0.119945,-0.08819 -0.07408,-0.03528 -0.194027,-0.03528 -0.151695,0 -0.264584,0.02117 -0.112889,0.02117 -0.172861,0.04233 l -0.03528,-0.239889 q 0.05997,-0.02822 0.197556,-0.04939 0.141111,-0.02117 0.299861,-0.02117 z"
         style="font-style:normal;font-variant:normal;font-weight:normal;font-stretch:normal;font-size:3.52777767px;line-height:1.25;font-family:'Ubuntu Mono';-inkscape-font-specification:'Ubuntu Mono, Normal';font-variant-ligatures:normal;font-variant-caps:normal;font-variant-numeric:normal;font-feature-settings:normal;text-align:start;letter-spacing:0px;word-spacing:0px;writing-mode:lr-tb;text-anchor:start;fill:#000000;fill-opacity:1;stroke:none;stroke-width:0.26458332"
         id="path4558"
         inkscape:connector-curvature="0" />
      <path
         d="m 35.308824,42.709604 q 0,-0.22225 0.07056,-0.384528 0.07056,-0.162277 0.194028,-0.268111 0.123472,-0.105833 0.28575,-0.155222 0.165805,-0.05292 0.352778,-0.05292 0.119944,0 0.236361,0.01764 0.119944,0.01411 0.254,0.05645 l -0.06703,0.250472 q -0.116417,-0.04233 -0.215195,-0.05292 -0.09525,-0.01411 -0.194027,-0.01411 -0.127,0 -0.239889,0.03528 -0.112889,0.03175 -0.197556,0.105833 -0.08114,0.07056 -0.130528,0.186973 -0.04939,0.112888 -0.04939,0.275166 0,0.155222 0.04586,0.268111 0.04586,0.109361 0.127,0.183445 0.08467,0.07055 0.201083,0.105833 0.116417,0.03528 0.257528,0.03528 0.112889,0 0.215194,-0.01058 0.105834,-0.01411 0.229306,-0.05645 l 0.04233,0.243417 q -0.123472,0.04586 -0.250472,0.0635 -0.127,0.02117 -0.275167,0.02117 -0.197555,0 -0.363361,-0.05292 -0.162278,-0.05645 -0.282222,-0.162278 -0.116417,-0.105833 -0.183445,-0.264583 -0.0635,-0.162278 -0.0635,-0.373945 z"
         style="font-style:normal;font-variant:normal;font-weight:normal;font-stretch:normal;font-size:3.52777767px;line-height:1.25;font-family:'Ubuntu Mono';-inkscape-font-specification:'Ubuntu Mono, Normal';font-variant-ligatures:normal;font-variant-caps:normal;font-variant-numeric:normal;font-feature-settings:normal;text-align:start;letter-spacing:0px;word-spacing:0px;writing-mode:lr-tb;text-anchor:start;fill:#000000;fill-opacity:1;stroke:none;stroke-width:0.26458332"
         id="path4560"
         inkscape:connector-curvature="0" />
      <path
         d="m 37.616786,41.887632 h 0.691444 v 0.243417 h -0.691444 v 0.762 q 0,0.123472 0.01764,0.201083 0.01764,0.07761 0.05644,0.127 0.04233,0.04586 0.105833,0.0635 0.0635,0.01764 0.155223,0.01764 0.127,0 0.204611,-0.02117 0.07761,-0.02117 0.148166,-0.05644 l 0.04233,0.246944 q -0.04939,0.02117 -0.15875,0.05645 -0.105834,0.03528 -0.264584,0.03528 -0.183444,0 -0.299861,-0.04233 -0.116416,-0.04233 -0.183444,-0.127 -0.0635,-0.08467 -0.0882,-0.208139 -0.02469,-0.127 -0.02469,-0.292805 v -0.762 H 36.981778 V 41.887645 H 37.3275 v -0.458611 l 0.289278,-0.04939 z"
         style="font-style:normal;font-variant:normal;font-weight:normal;font-stretch:normal;font-size:3.52777767px;line-height:1.25;font-family:'Ubuntu Mono';-inkscape-font-specification:'Ubuntu Mono, Normal';font-variant-ligatures:normal;font-variant-caps:normal;font-variant-numeric:normal;font-feature-settings:normal;text-align:start;letter-spacing:0px;word-spacing:0px;writing-mode:lr-tb;text-anchor:start;fill:#000000;fill-opacity:1;stroke:none;stroke-width:0.26458332"
         id="path4562"
         inkscape:connector-curvature="0" />
      <path
         inkscape:connector-curvature="0"
         id="path4606"
         d="m 39.097028,41.633632 q -0.09172,0 -0.15875,-0.0635 -0.06703,-0.0635 -0.06703,-0.172861 0,-0.109361 0.06703,-0.172861 0.06703,-0.0635 0.15875,-0.0635 0.09525,0 0.15875,0.0635 0.06703,0.0635 0.06703,0.172861 0,0.109361 -0.06703,0.172861 -0.0635,0.0635 -0.15875,0.0635 z"
         style="font-style:normal;font-variant:normal;font-weight:normal;font-stretch:normal;font-size:3.52777767px;line-height:1.25;font-family:'Ubuntu Mono';-inkscape-font-specification:'Ubuntu Mono, Normal';font-variant-ligatures:normal;font-variant-caps:normal;font-variant-numeric:normal;font-feature-settings:normal;text-align:start;letter-spacing:0px;word-spacing:0px;writing-mode:lr-tb;text-anchor:start;opacity:1;vector-effect:none;fill:#f78626;fill-opacity:1;stroke:none;stroke-width:0.28091294;stroke-linecap:butt;stroke-linejoin:miter;stroke-miterlimit:4;stroke-dasharray:none;stroke-dashoffset:0;stroke-opacity:1" />
      <path
         inkscape:connector-curvature="0"
         id="path4564"
         d="m 39.022948,42.131049 h -0.472722 v -0.243417 h 0.762 v 1.005417 q 0,0.243416 0.06703,0.328083 0.06703,0.08114 0.201083,0.08114 0.102306,0 0.186972,-0.02469 0.0882,-0.02469 0.137584,-0.05292 l 0.04233,0.246944 q -0.02117,0.01058 -0.05997,0.02822 -0.03881,0.01411 -0.09172,0.02822 -0.04939,0.01411 -0.112889,0.02469 -0.05997,0.01058 -0.127,0.01058 -0.155223,0 -0.257528,-0.04233 -0.102306,-0.04233 -0.165806,-0.127 -0.05997,-0.08467 -0.08467,-0.208139 -0.0247,-0.127 -0.0247,-0.292805 z"
         style="font-style:normal;font-variant:normal;font-weight:normal;font-stretch:normal;font-size:3.52777767px;line-height:1.25;font-family:'Ubuntu Mono';-inkscape-font-specification:'Ubuntu Mono, Normal';font-variant-ligatures:normal;font-variant-caps:normal;font-variant-numeric:normal;font-feature-settings:normal;text-align:start;letter-spacing:0px;word-spacing:0px;writing-mode:lr-tb;text-anchor:start;fill:#000000;fill-opacity:1;stroke:none;stroke-width:0.26458332" />
      <path
         d="m 41.547806,41.887632 q -0.0635,0.229306 -0.144639,0.451556 -0.08114,0.218722 -0.165806,0.430388 -0.08467,0.208139 -0.172861,0.398639 -0.08819,0.1905 -0.169333,0.356306 H 40.630584 Q 40.464778,43.19291 40.295445,42.769576 40.126111,42.346243 39.995584,41.887632 h 0.3175 q 0.04233,0.155222 0.09525,0.328083 0.05644,0.172861 0.116416,0.345723 0.05997,0.172861 0.119945,0.335138 0.0635,0.15875 0.123472,0.28575 0.05997,-0.127 0.123472,-0.28575 0.06703,-0.162277 0.130528,-0.335138 0.0635,-0.172862 0.119944,-0.345723 0.05997,-0.172861 0.102306,-0.328083 z"
         style="font-style:normal;font-variant:normal;font-weight:normal;font-stretch:normal;font-size:3.52777767px;line-height:1.25;font-family:'Ubuntu Mono';-inkscape-font-specification:'Ubuntu Mono, Normal';font-variant-ligatures:normal;font-variant-caps:normal;font-variant-numeric:normal;font-feature-settings:normal;text-align:start;letter-spacing:0px;word-spacing:0px;writing-mode:lr-tb;text-anchor:start;fill:#000000;fill-opacity:1;stroke:none;stroke-width:0.26458332"
         id="path4566"
         inkscape:connector-curvature="0" />
      <path
         d="m 42.427018,41.848826 q 0.331611,0 0.511528,0.208139 0.179916,0.204611 0.179916,0.624417 v 0.102306 H 41.94724 q 0.01764,0.254 0.165806,0.388055 0.151694,0.130528 0.423333,0.130528 0.155222,0 0.264584,-0.02469 0.109361,-0.02469 0.165805,-0.05292 l 0.03881,0.246944 q -0.05292,0.02822 -0.1905,0.05997 -0.137584,0.03175 -0.310445,0.03175 -0.211666,0 -0.373944,-0.0635 -0.15875,-0.06703 -0.264584,-0.179916 -0.105833,-0.112889 -0.15875,-0.268111 -0.05292,-0.15875 -0.05292,-0.342195 0,-0.218722 0.06703,-0.381 0.06703,-0.162278 0.176388,-0.268111 0.109362,-0.105833 0.246945,-0.15875 0.137583,-0.05292 0.282222,-0.05292 z m 0.395111,0.6985 q 0,-0.208138 -0.109361,-0.328083 -0.109361,-0.123472 -0.289278,-0.123472 -0.102305,0 -0.186972,0.03881 -0.08114,0.03881 -0.141111,0.102306 -0.05997,0.0635 -0.09525,0.144639 -0.03528,0.08114 -0.04586,0.165805 z"
         style="font-style:normal;font-variant:normal;font-weight:normal;font-stretch:normal;font-size:3.52777767px;line-height:1.25;font-family:'Ubuntu Mono';-inkscape-font-specification:'Ubuntu Mono, Normal';font-variant-ligatures:normal;font-variant-caps:normal;font-variant-numeric:normal;font-feature-settings:normal;text-align:start;letter-spacing:0px;word-spacing:0px;writing-mode:lr-tb;text-anchor:start;fill:#000000;fill-opacity:1;stroke:none;stroke-width:0.26458332"
         id="path4568"
         inkscape:connector-curvature="0" />
    </g>
  </g>
</svg>
